<svg
    width="1.8rem"
    height="2.0rem"
    viewBox="0 0 18 20"
    fill="none"
    xmlns="http://www.w3.org/2000/svg">
    <path d="M17.9997 10.0002C18.0021 10.3799 17.9028 10.7534 17.712 11.0822C17.5211 11.4111 17.2455 11.6834 16.9136 11.8712L3.25789 19.7076C2.92845 19.8991 2.55369 20 2.17209 20C1.79033 20 1.41559 19.8991 1.08613 19.7076C0.754257 19.5198 0.478567 19.2474 0.287764 18.9185C0.0969536 18.5896 -0.0023931 18.2162 4.37751e-05 17.8366V2.16243C-0.00210662 1.78294 0.0972397 1.40969 0.288054 1.08106C0.479007 0.752436 0.754401 0.480236 1.08613 0.292426C1.41557 0.100895 1.79033 0 2.17208 0C2.55369 0 2.92843 0.100895 3.25789 0.292426L16.9143 8.13024C17.246 8.31806 17.5214 8.59024 17.7121 8.91887C17.9029 9.24749 18.0023 9.62071 18 10.0001L17.9997 10.0002Z" fill="#222222" />
</svg>