<svg viewBox="0 0 650 650" fill="none" xmlns="http://www.w3.org/2000/svg">
<path d="M355.377 317.151C345.503 298.175 376.593 264.467 400.625 238.411C436.871 199.112 505.975 124.189 579.512 140.999C587.451 142.813 617.43 149.667 630.404 174.56C643.544 199.767 631.59 228.779 628.606 236.02C600.363 304.563 501.618 317.721 445.607 325.184C409.57 329.987 365.137 335.908 355.377 317.151Z" fill="#FF3316"/>
<path d="M323.624 311.434C307.308 325.267 267.483 302.337 236.696 284.61C190.267 257.877 101.746 206.909 101.755 131.364C101.755 123.208 101.759 92.4102 123.158 74.2422C144.827 55.8449 175.804 61.1195 183.536 62.4355C256.72 74.8982 291.576 168.454 311.347 221.519C324.068 255.662 339.752 297.761 323.624 311.434Z" fill="#208DEB"/>
<path d="M340.494 306.971C319.503 302.85 312.589 257.367 307.245 222.207C299.183 169.182 283.814 68.0842 342.874 20.8895C349.251 15.7935 373.327 -3.44515 400.877 1.94284C428.774 7.39884 443.971 34.9282 447.765 41.8002C483.669 106.837 432.275 192.562 403.125 241.186C384.369 272.471 361.242 311.044 340.494 306.971Z" fill="#252696"/>
<path d="M314.221 327.914C314.85 349.295 272.394 366.109 239.574 379.106C190.077 398.707 95.706 436.078 37.0926 388.933C30.7646 383.843 6.86864 364.623 6.02331 336.565C5.16598 308.153 28.4433 287.237 34.254 282.017C89.2446 232.603 183.426 263.742 236.847 281.403C271.219 292.767 313.598 306.778 314.221 327.914Z" fill="#00A3C1"/>
<path d="M324.186 342.885C341.311 355.702 327.958 399.502 317.634 433.361C302.066 484.426 272.382 581.784 198.887 598.452C190.951 600.252 160.99 607.048 138.503 590.244C115.734 573.228 113.9 541.93 113.443 534.12C109.112 460.182 192.292 405.624 239.472 374.677C269.828 354.766 307.258 330.216 324.186 342.885Z" fill="#009658"/>
<path d="M341.817 347.443C362.518 342.055 388.445 379.925 408.486 409.2C438.711 453.351 496.338 537.527 463.549 605.511C460.009 612.851 446.642 640.565 419.481 647.656C391.977 654.836 366.361 636.684 359.966 632.153C299.446 589.269 308.643 489.988 313.859 433.675C317.215 397.443 321.354 352.769 341.817 347.443Z" fill="#FCEA0D"/>
<path d="M354.923 334.738C363.626 315.198 409.5 318.61 444.963 321.247C498.446 325.226 600.412 332.81 633.226 400.914C636.768 408.266 650.146 436.03 638.743 461.681C627.196 487.655 596.971 496.325 589.426 498.489C518.019 518.97 445.942 449.739 405.058 410.47C378.754 385.206 346.32 354.054 354.923 334.738Z" fill="#FF9900"/>
<circle cx="325" cy="325" r="120" fill="white"/>
</svg>
