<svg viewBox="0 0 22 22" fill="none" xmlns="http://www.w3.org/2000/svg">
<path d="M19.3769 9.30786H0L2.28451 20.6461C2.45379 21.4077 3.13072 21.9999 3.97674 21.9999H18.1073C18.9535 21.9999 19.6304 21.4077 19.7995 20.6461L21.9997 9.30786H19.3769Z" fill="#222222"/>
<path d="M9.22315 1.26922C9.22315 1.10012 9.30779 1.01548 9.30779 0.846208C9.30779 0.338565 8.96941 0 8.46158 0C8.12321 0 7.86931 0.169278 7.7 0.423013L3.55396 7.61542H5.50012L9.22315 1.26922Z" fill="#222222"/>
<path d="M12.777 1.26931L16.4154 7.61542H18.3615L14.2155 0.423013C14.1308 0.169273 13.8769 0 13.5385 0C13.0309 0 12.6923 0.338374 12.6923 0.846208C12.6923 1.01549 12.777 1.10012 12.777 1.26922L12.777 1.26931Z" fill="#222222"/>
</svg>
