<svg width="24" height="24" viewBox="0 0 28 26" fill="none" xmlns="http://www.w3.org/2000/svg">
  <path d="M14.0439 0.637735C17.5263 0.637735 21.009 0.637735 24.4919 0.637735C26.1059 0.637735 27.3611 1.65382 27.6909 3.22745C27.7305 3.45164 27.7468 3.67932 27.7397 3.90687C27.7397 10.7193 27.7397 17.5318 27.7397 24.3443C27.7397 24.9643 27.5371 25.3215 27.0687 25.4975C26.5659 25.6864 26.1714 25.5036 25.8096 25.1372C24.5277 23.8423 23.2305 22.5589 21.9494 21.2618C21.87 21.1751 21.7726 21.1069 21.6641 21.0619C21.5555 21.0169 21.4384 20.9962 21.321 21.0013C15.4063 21.0089 9.4921 21.0104 3.57841 21.0058C1.97888 21.0058 0.742677 19.9989 0.415155 18.4321C0.37395 18.1956 0.357102 17.9554 0.364881 17.7154C0.364881 13.1184 0.364881 8.52291 0.364881 3.92896C0.364881 1.99505 1.72829 0.644588 3.67058 0.643065C7.1281 0.637987 10.5859 0.636211 14.0439 0.637735ZM14.0698 11.8824H9.70156C8.70148 11.8824 7.70139 11.8756 6.7013 11.8824C6.42617 11.8801 6.16081 11.9842 5.96066 12.173C5.76051 12.3618 5.64108 12.6207 5.62733 12.8955C5.60372 13.4378 6.01351 13.8986 6.59238 13.9771C6.69359 13.9874 6.79536 13.9912 6.89706 13.9885C11.6703 13.9885 16.4435 13.9885 21.2167 13.9885C21.3807 13.9881 21.5441 13.9697 21.7041 13.9336C21.8658 13.8972 22.0153 13.8198 22.1383 13.7088C22.2613 13.5978 22.3537 13.457 22.4064 13.2999C22.6814 12.5786 22.1558 11.884 21.3256 11.8824C18.907 11.8799 16.4884 11.8799 14.0698 11.8824ZM10.0192 9.75962C11.0947 9.75962 12.1694 9.75962 13.2449 9.75962C13.9251 9.75962 14.3966 9.33156 14.3996 8.72526C14.4027 8.11896 13.935 7.68328 13.2525 7.68176C11.0893 7.67617 8.92668 7.67617 6.76453 7.68176C6.60111 7.67899 6.43846 7.70477 6.2839 7.75793C6.06435 7.84373 5.88086 8.00221 5.76401 8.20694C5.64716 8.41166 5.60403 8.65026 5.64181 8.88293C5.73854 9.38793 6.13309 9.74744 6.64266 9.75201C7.76842 9.76495 8.89418 9.75962 10.0192 9.75962Z" fill="black"/>
</svg>
