<svg width="2.2rem" height="2.2rem" viewBox="0 0 22 22" fill="none" xmlns="http://www.w3.org/2000/svg">
  <path d="M19.0132 0.151367H2.62426C1.39044 0.151367 0.389404 1.1524 0.389404 2.38623V18.7752C0.389404 20.009 1.39044 21.0101 2.62426 21.0101H19.0132C20.2471 21.0101 21.2481 20.009 21.2481 18.7752V2.38623C21.2481 1.1524 20.2471 0.151367 19.0132 0.151367ZM17.5233 11.8844C17.5233 12.1917 17.2719 12.4431 16.9646 12.4431H12.6811V16.7266C12.6811 17.0339 12.4297 17.2853 12.1224 17.2853H9.51508C9.20779 17.2853 8.95637 17.0339 8.95637 16.7266V12.4431H4.67289C4.36559 12.4431 4.11417 12.1917 4.11417 11.8844V9.27705C4.11417 8.96975 4.36559 8.71833 4.67289 8.71833H8.95637V4.43485C8.95637 4.12756 9.20779 3.87613 9.51508 3.87613H12.1224C12.4297 3.87613 12.6811 4.12756 12.6811 4.43485V8.71833H16.9646C17.2719 8.71833 17.5233 8.96975 17.5233 9.27705V11.8844Z" fill="#FADD66"/>
</svg>
