<svg viewBox="0 0 24 24" fill="none" xmlns="http://www.w3.org/2000/svg">
<path d="M0.722742 0.000696333C0.494904 0.00923472 0.2833 0.120736 0.147534 0.304057C0.0119346 0.487211 -0.0330935 0.722267 0.0254943 0.942572L2.52436 10.3094L13.5588 11.9985L2.52607 13.6861L0.0257085 23.0555C-0.0246811 23.2428 -0.000406727 23.4426 0.093339 23.6123C0.187253 23.7822 0.343105 23.9093 0.52858 23.9666C0.713896 24.0238 0.91428 24.0071 1.08755 23.9197L23.5867 12.6692C23.7533 12.5855 23.8825 12.443 23.9497 12.2691C24.0168 12.0953 24.0168 11.9028 23.9497 11.729C23.8825 11.5552 23.7533 11.4125 23.5867 11.3288L1.08755 0.0783184C0.974548 0.0220659 0.848797 -0.0044939 0.722742 0.000696333Z" fill="#222222"/>
</svg>
