<svg width="35" height="22" viewBox="0 0 35 22" fill="none" xmlns="http://www.w3.org/2000/svg">
<path d="M30.0782 2.08939C19.7378 -0.696464 10.3404 -0.696464 0 2.08939V17.0827C10.3397 14.2969 19.7384 14.2969 30.0788 17.0827C30.0788 12.0847 30.0788 7.08694 30.0786 2.08939H30.0782ZM28.7003 15.2631C20.1939 13.2076 12.4078 13.0097 3.80931 14.6358C3.80931 13.2774 2.71366 12.4236 1.37768 12.8047V3.08082C9.88411 1.02458 17.6702 0.828478 26.2694 2.45327C26.2694 3.81116 27.3648 5.15876 28.7007 5.5398C28.7005 9.42934 28.7005 11.3738 28.7005 15.2636L28.7003 15.2631Z" fill="#222222"/>
<path d="M19.3952 7.45222C19.3952 9.82876 17.4465 11.5645 15.0384 11.5645C12.6295 11.5645 10.6824 9.82876 10.6824 7.45222C10.6824 5.07568 12.6298 2.95733 15.0384 2.9576C17.4465 2.95813 19.3952 5.07547 19.3952 7.45222Z" fill="#222222"/>
<path d="M32.5384 4.54758C31.9492 4.38877 31.3639 4.24186 30.7803 4.10128C30.7805 8.66253 30.7805 13.2238 30.7805 17.785C21.0291 15.1583 12.1151 15.0105 2.45917 17.3387V19.5411C12.7989 16.755 22.1976 16.7553 32.538 19.5411C32.5388 14.5434 32.5388 9.54537 32.5383 4.54715L32.5384 4.54758Z" fill="#222222"/>
<path d="M34.9999 7.00644C34.4107 6.84763 33.8255 6.70072 33.2418 6.56015C33.2421 11.1214 33.2421 15.6826 33.2421 20.2439C23.4907 17.6171 14.5767 17.4702 4.92072 19.7976V22C15.2604 19.2141 24.6592 19.2141 34.9996 22C35.0001 17.0025 35.0001 12.0042 34.9998 7.00668L34.9999 7.00644Z" fill="#222222"/>
</svg>
