<svg width="35" height="22" viewBox="0 0 35 22" fill="none" xmlns="http://www.w3.org/2000/svg">
<path d="M0 4.33447H34.4853V8.35415H0V4.33447Z" fill="#222222"/>
<path d="M0 3.48812V1.69238C0 0.758842 0.759144 0 1.69238 0H32.7926C33.7261 0 34.485 0.759144 34.485 1.69238V3.48812H0Z" fill="#222222"/>
<path d="M0 9.20044V20.3077C0 21.2412 0.759144 22 1.69238 22H32.7926C33.7261 22 34.485 21.2409 34.485 20.3077V9.20044H0ZM8.70972 17.3812C8.70972 17.8485 8.33045 18.2274 7.86353 18.2274H5.04305C4.57583 18.2274 4.19687 17.8482 4.19687 17.3812V14.5608C4.19687 14.0935 4.57614 13.7146 5.04305 13.7146H7.86353C8.33076 13.7146 8.70972 14.0938 8.70972 14.5608V17.3812ZM27.3449 19.2501H22.3202V18.4568H27.3449V19.2501ZM32.3696 16.7644H22.3202V15.971H32.3696V16.7644Z" fill="#222222"/>
</svg>
