<svg viewBox="0 0 21 21" fill="none" xmlns="http://www.w3.org/2000/svg">
<path d="M0.984419 5.57828H2.95326V16.7344C2.95326 19.166 4.92825 21 7.54683 21H12.7969C15.4157 21 17.3904 19.1662 17.3904 16.7344V5.57828H19.3593C19.9029 5.57828 20.3437 5.13769 20.3437 4.59386C20.3437 4.05028 19.9031 3.60944 19.3593 3.60944H14.7655V0.98442C14.7655 0.440835 14.3249 0 13.7811 0H6.56241C6.01882 0 5.57799 0.440589 5.57799 0.98442V3.60944H0.984419C0.440835 3.60944 0 4.05003 0 4.59386C0 5.13745 0.440818 5.57828 0.984419 5.57828ZM10.828 16.0781C10.828 16.4405 10.5339 16.7343 10.1718 16.7343C9.80953 16.7343 9.51567 16.4402 9.51567 16.0781V9.02355C9.51567 8.66123 9.80977 8.36736 10.1718 8.36736C10.5342 8.36736 10.828 8.66147 10.828 9.02355V16.0781ZM13.7812 9.02355V16.0781C13.7812 16.4405 13.4871 16.7343 13.1251 16.7343C12.7627 16.7343 12.4689 16.4402 12.4689 16.0781L12.4686 9.02355C12.4686 8.66123 12.7627 8.36736 13.1248 8.36736C13.4871 8.36736 13.7812 8.66147 13.7812 9.02355H13.7812ZM7.54694 1.96896H12.797V3.60956H7.54694V1.96896ZM6.56252 9.02355C6.56252 8.66123 6.85663 8.36736 7.21871 8.36736C7.58102 8.36736 7.87489 8.66147 7.87489 9.02355L7.87512 16.0781C7.87512 16.4405 7.58101 16.7343 7.21894 16.7343C6.85662 16.7343 6.56275 16.4402 6.56275 16.0781L6.56252 9.02355Z" fill="#222222"/>
</svg>
