<svg width="26" height="24" viewBox="0 0 26 24" fill="currentColor" xmlns="http://www.w3.org/2000/svg">
    <path d="M12.9999 22.5835L11.8882 21.468L11.8666 21.4463L11.8437 21.426C8.44703 18.4111 5.71807 15.9554 3.82857 13.6488C1.95058 11.3563 1 9.32602 1 7.17399C1 3.67962 3.67543 1 7.14998 1C9.05979 1 10.992 1.90926 12.2356 3.38382L13.0007 4.29106L13.765 3.38312C15.0054 1.90964 16.9396 1 18.85 1C22.3245 1 25 3.67959 25 7.17399C25 9.32603 24.0494 11.3564 22.1715 13.649C20.282 15.9556 17.553 18.4113 14.1563 21.426L14.1335 21.4463L14.1119 21.4679L12.9999 22.5835Z" stroke="#F23D15" stroke-width="2"/>
</svg>