<svg width="22" height="22" viewBox="0 0 27 28" fill="none" xmlns="http://www.w3.org/2000/svg">
  <g clip-path="url(#clip0_1769_356)">
    <path d="M7.79256e-06 14.0532C0.00857587 6.59504 6.05171 0.54927 13.4934 0.553225C20.9641 0.557179 27.0158 6.61679 27.0007 14.073C26.9855 21.5292 20.9121 27.5796 13.4532 27.5532C6.00557 27.5242 -0.00790121 21.4923 7.79256e-06 14.0532ZM22.944 20.1926C25.6693 16.3574 25.6891 9.90495 21.1645 5.73757C20.0732 4.72601 18.7924 3.94043 17.3961 3.42613C15.9997 2.91182 14.5154 2.67896 13.0286 2.74097C11.5419 2.80297 10.0821 3.1586 8.73341 3.78738C7.38473 4.41616 6.17384 5.30564 5.17051 6.40456C1.0407 10.9127 1.71362 17.0435 4.06853 20.1827C6.78 17.8555 9.90866 16.6177 13.4934 16.6164C17.0782 16.6151 20.2292 17.8581 22.944 20.1926Z" fill="#222"/>
    <path d="M18.2533 10.048C18.2896 11.2302 17.9014 12.3864 17.1589 13.3071C16.4165 14.2279 15.3689 14.8524 14.2059 15.0676C12.779 15.3246 11.5412 14.8606 10.4735 13.9471C9.22122 12.8735 8.69396 11.4716 8.75986 9.82917C8.84291 7.7089 9.84735 6.19499 11.7653 5.31907C14.397 4.11624 17.3062 5.92476 18.0371 8.4273C18.1142 8.68935 18.1715 8.95681 18.2085 9.22743C18.2414 9.49963 18.2388 9.77513 18.2533 10.048Z" fill="#222"/>
  </g>
  <defs>
    <clipPath id="clip0_1769_356">
      <rect width="27" height="27" fill="#222" transform="translate(0 0.553223)"/>
    </clipPath>
  </defs>
</svg>
