<svg width="24" height="16" viewBox="0 0 24 16" fill="none" xmlns="http://www.w3.org/2000/svg">
<path fill-rule="evenodd" clip-rule="evenodd" d="M0 10.6667C0 13.6122 2.44202 16 5.4545 16C8.46699 16 10.909 13.6122 10.909 10.6667C10.909 7.75727 8.5254 5.39352 5.56398 5.33613C6.94109 4.01558 8.82722 3.19998 10.909 3.19998V0C4.88432 0 0 4.77579 0 10.6666V10.6667ZM24 9.10475e-05C17.9753 9.10475e-05 13.091 4.77588 13.091 10.6667C13.091 13.6122 15.5332 16 18.5455 16C21.558 16 24 13.6122 24 10.6667C24 7.75727 21.6164 5.39352 18.655 5.33613C20.0321 4.01558 21.9184 3.19998 24 3.19998V9.10475e-05Z" fill="white"/>
</svg>
