<svg width="18" height="27" viewBox="0 0 18 27" fill="none" xmlns="http://www.w3.org/2000/svg">
<path d="M3.91949 2.42305e-06C4.86598 -0.00127177 5.784 0.36418 6.51914 1.0349L16.7178 10.5065C17.1177 10.8647 17.4407 11.3197 17.6627 11.8378C17.8847 12.3559 18 12.9236 18 13.4987C18 14.0738 17.8847 14.6415 17.6627 15.1596C17.4407 15.6776 17.1177 16.1327 16.7178 16.4909L6.51915 25.9625C5.90516 26.5159 5.16533 26.8642 4.38396 26.9676C3.60259 27.0711 2.81112 26.9255 2.09973 26.5474C1.48146 26.2408 0.954702 25.7405 0.58237 25.1062C0.210037 24.4718 0.00786514 23.7304 1.07822e-06 22.9703L-5.77841e-07 4.02711C0.00786336 3.26702 0.210035 2.52553 0.582368 1.89121C0.9547 1.25689 1.48146 0.756558 2.09972 0.44996C2.67138 0.157492 3.2915 0.00415859 3.91949 2.42305e-06Z" fill="white"/>
</svg>
