<svg width="24" height="24" viewBox="0 0 24 24" fill="none" xmlns="http://www.w3.org/2000/svg">
<path fill="currentColor" fill-rule="evenodd" clip-rule="evenodd" d="M12 24C18.6273 24 24 18.6273 24 12C24 5.37268 18.6273 0 12 0C5.37268 0 0 5.37268 0 12C0 18.6273 5.37268 24 12 24ZM12 20.8573C16.4184 20.8573 19.7143 17.7382 19.7143 13.7141C19.7143 13.2855 16.4184 14.6922 12 14.6922C7.5818 14.6922 4.28571 13.2855 4.28571 13.7141C4.28571 17.738 7.5818 20.8573 12 20.8573ZM8.71436 11.9998C9.42439 11.9998 10.0001 10.5289 10.0001 8.71414C10.0001 6.89941 9.42439 5.4285 8.71436 5.4285C8.00432 5.4285 7.42864 6.89941 7.42864 8.71414C7.42864 10.5289 8.00432 11.9998 8.71436 11.9998ZM15.286 11.9998C15.996 11.9998 16.5717 10.5289 16.5717 8.71414C16.5717 6.89941 15.996 5.4285 15.286 5.4285C14.5757 5.4285 14.0003 6.89941 14.0003 8.71414C14.0003 10.5289 14.5757 11.9998 15.286 11.9998Z" fill="#222222"/>
</svg>
