<svg viewBox="0 0 1073 1273" fill="none" xmlns="http://www.w3.org/2000/svg">
<path d="M820.543 238.335V1272.4H699.364L135.881 460.497H125.783V1272.4H0.564453V238.335H121.744L687.246 1052.26H697.344V238.335H820.543Z" fill="#00A2B1"/>
<path d="M756.801 349.399C775.777 339.526 809.485 370.615 835.541 394.647C874.84 430.894 949.763 499.998 932.953 573.535C931.139 581.474 924.285 611.453 899.392 624.427C874.185 637.567 845.173 625.613 837.932 622.629C769.389 594.386 756.231 495.641 748.768 439.63C743.965 403.593 738.044 359.159 756.801 349.399Z" fill="#E7432C"/>
<path d="M762.518 317.648C748.684 301.332 771.615 261.506 789.342 230.72C816.075 184.29 867.043 95.7691 942.588 95.7784C950.744 95.7784 981.542 95.7824 999.71 117.181C1018.11 138.85 1012.83 169.828 1011.52 177.56C999.054 250.744 905.498 285.6 852.432 305.37C818.29 318.092 776.191 333.776 762.518 317.648Z" fill="#1D70B7"/>
<path d="M766.981 334.517C771.102 313.527 816.585 306.612 851.745 301.268C904.77 293.207 1005.87 277.837 1053.06 336.897C1058.16 343.275 1077.4 367.351 1072.01 394.9C1066.55 422.797 1039.02 437.995 1032.15 441.788C967.114 477.692 881.39 426.299 832.766 397.148C801.481 378.392 762.908 355.265 766.981 334.517Z" fill="#2D2E82"/>
<path d="M746.038 308.244C724.656 308.873 707.843 266.417 694.846 233.597C675.244 184.1 637.874 89.7289 685.019 31.1156C690.108 24.7876 709.328 0.891598 737.387 0.0462646C765.799 -0.811069 786.715 22.4663 791.935 28.2769C841.348 83.2676 810.21 177.449 792.548 230.87C781.184 265.242 767.174 307.621 746.038 308.244Z" fill="#00A3C1"/>
<path d="M731.067 318.208C718.249 335.334 674.449 321.98 640.591 311.656C589.525 296.088 492.168 266.404 475.5 192.91C473.7 184.974 466.904 155.012 483.708 132.526C500.724 109.756 532.021 107.923 539.832 107.466C613.769 103.135 668.328 186.315 699.275 233.495C719.185 263.851 743.736 301.28 731.067 318.208Z" fill="#009658"/>
<path d="M726.509 335.84C731.897 356.541 694.026 382.468 664.751 402.509C620.601 432.734 536.425 490.361 468.441 457.572C461.101 454.032 433.386 440.665 426.295 413.504C419.115 386 437.267 360.384 441.798 353.989C484.682 293.469 583.963 302.666 640.277 307.882C676.509 311.238 721.182 315.377 726.509 335.84Z" fill="#FCEA0D"/>
<path d="M739.214 348.947C758.754 357.649 755.342 403.524 752.704 438.987C748.726 492.469 741.142 594.436 673.038 627.249C665.686 630.792 637.922 644.169 612.271 632.767C586.296 621.22 577.627 590.995 575.463 583.449C554.982 512.043 624.212 439.965 663.482 399.081C688.746 372.777 719.898 340.344 739.214 348.947Z" fill="#F29100"/>
<path d="M866.631 299.534C883.695 365.531 844.027 432.867 778.029 449.931C712.031 466.995 644.697 427.327 627.631 361.328C617.429 321.868 628.382 278.558 654.819 248.476C660.566 241.939 681.645 218.603 716.234 210.931C770.067 198.992 847.862 226.944 866.631 299.534Z" fill="white"/>
</svg>