<svg width="28" height="28" viewBox="0 0 28 28" fill="none" xmlns="http://www.w3.org/2000/svg">
  <path fill-rule="evenodd" clip-rule="evenodd" d="M27.802 13.1988C27.8018 13.4287 27.8015 13.6588 27.8015 13.8891C27.8015 14.1466 27.8019 14.4038 27.8023 14.6608C27.8047 16.2867 27.8071 17.9029 27.7127 19.5294C27.6067 21.7171 27.111 23.6553 25.5078 25.2585C23.908 26.8583 21.9664 27.3574 19.7786 27.4634C18.125 27.5564 16.4819 27.5546 14.8285 27.5528C14.5987 27.5525 14.3686 27.5523 14.1383 27.5523C13.9085 27.5523 13.6789 27.5525 13.4494 27.5528C11.7982 27.5546 10.1547 27.5564 8.49804 27.4634C6.31028 27.3574 4.37207 26.8617 2.76886 25.2585C1.16907 23.6587 0.669985 21.7171 0.564015 19.5294C0.470976 17.8757 0.472799 16.2299 0.474629 14.5781C0.474883 14.3485 0.475138 14.1189 0.475138 13.8891C0.475138 13.6592 0.474883 13.4296 0.474629 13.2001C0.472799 11.5489 0.470977 9.90544 0.564015 8.24877C0.669985 6.06101 1.16565 4.1228 2.76886 2.51959C4.36865 0.919798 6.31028 0.420717 8.49804 0.314748C10.1517 0.221713 11.7947 0.223531 13.4481 0.225361C13.678 0.225616 13.908 0.22587 14.1383 0.22587C14.3682 0.22587 14.5978 0.225616 14.8273 0.225361C16.4785 0.223531 18.122 0.22171 19.7786 0.314748C21.9664 0.420717 23.9046 0.916379 25.5078 2.51959C27.1076 4.11938 27.6067 6.06101 27.7127 8.24877C27.8057 9.90239 27.8039 11.5455 27.802 13.1988ZM7.80103 12.6377L19.6729 7.95883C20.2146 7.70837 20.7382 8.09228 20.5313 8.94018L18.5098 18.677C18.3685 19.3695 17.9607 19.5338 17.3929 19.2142L14.3135 16.8895L12.833 18.3608C12.8275 18.3663 12.822 18.3717 12.8165 18.3771C12.6514 18.5403 12.5145 18.6756 12.2163 18.6756L12.4266 15.4647L12.4252 15.464H12.4266L18.1402 10.1939C18.3906 9.96669 18.0859 9.85514 17.7525 10.0625L10.7004 14.6099L7.65239 13.6382C6.99552 13.4322 6.99083 12.9703 7.80103 12.6377Z" fill="white"/>
</svg>
