<svg viewBox="0 0 14 14" fill="none" xmlns="http://www.w3.org/2000/svg">
<path fill-rule="evenodd" clip-rule="evenodd" d="M0.939566 10.9391C0.35378 11.5248 0.35378 12.4746 0.939566 13.0604C1.52535 13.6462 2.4751 13.6462 3.06089 13.0604L6.99994 9.12133L10.9393 13.0607C11.5251 13.6465 12.4748 13.6465 13.0606 13.0607C13.6464 12.4749 13.6464 11.5252 13.0606 10.9394L9.12126 7.00001L13.0609 3.06042C13.6466 2.47463 13.6466 1.52488 13.0609 0.939095C12.4751 0.353309 11.5253 0.353309 10.9395 0.939096L6.99994 4.87869L3.06066 0.939411C2.47487 0.353625 1.52513 0.353625 0.93934 0.939411C0.353553 1.5252 0.353553 2.47494 0.93934 3.06073L4.87862 7.00001L0.939566 10.9391Z" fill="currentColor"/>
</svg>

