<svg width="22" height="21" viewBox="0 0 22 21" fill="none" xmlns="http://www.w3.org/2000/svg">
  <path fill-rule="evenodd" clip-rule="evenodd" d="M3.08264 0.151367H19.4635C20.6968 0.151367 21.6973 1.15191 21.6973 2.38513V18.766C21.6973 19.9993 20.6968 20.9998 19.4635 20.9998H3.08264C1.84942 20.9998 0.848877 19.9993 0.848877 18.766V2.38513C0.848877 1.15191 1.84942 0.151367 3.08264 0.151367ZM17.9743 12.303C17.9743 12.6102 17.7231 12.8615 17.4159 12.8615H9.4116H5.13023C4.82309 12.8615 4.57179 12.6102 4.57179 12.303V9.69697C4.57179 9.38983 4.82309 9.13853 5.13023 9.13853H9.4116H17.4159C17.7231 9.13853 17.9743 9.38983 17.9743 9.69697V12.303Z" fill="#FADD66"/>
</svg>
