<svg width="22" height="22" viewBox="0 0 22 22" fill="none" xmlns="http://www.w3.org/2000/svg">
<path d="M0.64264 7.94216C0.169905 6.80641 -0.0465375 5.57978 0.00834041 4.35067C0.0663254 3.59509 0.397857 2.88688 0.940971 2.35838L2.73677 0.562583V0.562139C3.06167 0.204044 3.52245 0 4.00577 0C4.4891 0 4.95035 0.204056 5.27478 0.562139C5.77628 1.02557 6.23927 1.52663 6.74084 2.0282L8.16882 3.45618C8.56365 3.77797 8.79293 4.26001 8.79293 4.76949C8.79293 5.27896 8.56365 5.76143 8.16882 6.08325C7.57215 6.67991 7.0078 7.28279 6.37302 7.8471C6.23093 7.95643 6.188 8.15207 6.27121 8.31052C6.68021 9.24625 7.21845 10.12 7.87041 10.9056C9.13364 12.5044 10.6489 13.8868 12.3565 14.9987C12.7243 15.2332 13.1559 15.3983 13.5175 15.6334L13.518 15.633C13.6857 15.7365 13.9048 15.6923 14.019 15.5316L15.8148 13.7358H15.8153C16.1322 13.3644 16.5961 13.1506 17.0843 13.1506C17.5725 13.1506 18.0364 13.3644 18.3533 13.7358L21.3039 16.6293C21.685 16.9595 21.9036 17.4388 21.9036 17.943C21.9036 18.4467 21.685 18.9261 21.3039 19.2563C20.7709 19.8211 20.1743 20.3222 19.6732 20.9189C18.9619 21.705 17.915 22.0994 16.862 21.9785C15.3411 21.8373 13.8617 21.4062 12.5024 20.7095C9.42527 19.2209 6.70302 17.0893 4.51957 14.4591C2.86236 12.5261 1.55086 10.3214 0.642531 7.94223L0.64264 7.94216Z" fill="#222222"/>
</svg>
