<svg viewBox="0 0 20 20" fill="currentColor" xmlns="http://www.w3.org/2000/svg">
<path d="M12.8568 8.5707C13.6456 8.5707 14.2853 7.9312 14.2853 7.14216C14.2853 6.35328 13.6456 5.71362 12.8568 5.71362C12.0677 5.71362 11.4282 6.35328 11.4282 7.14216C11.4282 7.93104 12.0677 8.5707 12.8568 8.5707Z" fill="#222222"/>
<path d="M8.57143 7.14265C8.57143 7.93153 7.93177 8.57119 7.14289 8.57119C6.35401 8.57119 5.71436 7.93153 5.71436 7.14265C5.71436 6.35377 6.35401 5.71411 7.14289 5.71411C7.93177 5.71411 8.57143 6.35377 8.57143 7.14265Z" fill="#222222"/>
<path fill-rule="evenodd" clip-rule="evenodd" d="M5.71415 0C2.55831 0 0 2.55831 0 5.71415V14.2854C0 17.4412 2.55831 19.9995 5.71415 19.9995L9.52353 20C9.5417 20 9.55988 19.9998 9.57789 19.9995H11.197C12.2075 19.9995 13.1763 19.5981 13.8908 18.8836L18.8833 13.8911C19.5977 13.1767 19.999 12.2078 19.999 11.1974V9.57251C19.9993 9.5564 19.9993 9.5403 19.9993 9.5242L19.999 5.71433C19.999 2.55849 17.4407 0.00017952 14.2849 0.00017952L5.71415 0ZM18.0943 9.55202V5.71427C18.0943 3.61036 16.3886 1.90489 14.2849 1.90489H5.71407C3.61016 1.90489 1.90469 3.61036 1.90469 5.71427V14.2855C1.90469 16.3894 3.61016 18.0949 5.71407 18.0949H9.55487C10.0663 18.0781 10.4757 17.6584 10.4757 17.1431V16.1872C10.4761 15.6881 10.5403 15.204 10.6609 14.7425C10.4571 14.7549 10.2371 14.7618 9.99952 14.7618C8.54674 14.7618 7.40171 14.1798 6.64181 13.6272C6.25996 13.3495 5.96485 13.072 5.76285 12.8613C5.66145 12.7554 5.58237 12.6653 5.52657 12.5988C5.49866 12.5655 5.47634 12.5379 5.45992 12.5172L5.43967 12.4914L5.43282 12.4825L5.43027 12.4789L5.42915 12.4775C5.42772 12.4756 5.42819 12.4762 5.42819 12.4762C5.11267 12.0553 5.19781 11.4584 5.61872 11.1429C6.03818 10.8282 6.63274 10.912 6.94906 11.3294L6.95352 11.335C6.95926 11.3422 6.96994 11.3556 6.98573 11.3744C7.01729 11.412 7.06847 11.4707 7.13815 11.5435C7.27845 11.6899 7.48922 11.8886 7.76217 12.0869C8.31175 12.4866 9.07161 12.8571 9.99951 12.8571C10.8754 12.8571 11.3649 12.7472 11.6031 12.6678C11.6578 12.6495 11.6991 12.6329 11.7286 12.62C12.7694 11.3213 14.3656 10.4868 16.157 10.4767C16.168 10.4764 16.1789 10.4761 16.19 10.4761H17.1723C17.675 10.4605 18.0796 10.0552 18.0942 9.55198L18.0943 9.55202ZM12.3805 17.6824C12.4374 17.6373 12.492 17.5887 12.5438 17.5369L17.5363 12.5443C17.5883 12.4924 17.6368 12.4378 17.6819 12.3809H17.1943C17.177 12.3812 17.1597 12.3814 17.1422 12.3814H16.1899C14.9492 12.3814 13.847 12.9745 13.1514 13.8927C13.1457 13.9006 13.1398 13.9084 13.1337 13.9163C12.6605 14.551 12.3805 15.3383 12.3805 16.1908L12.3805 17.6824Z" fill="#222222"/>
</svg>