<!-- <svg width="22" height="22" viewBox="0 0 22 22" fill="none" xmlns="http://www.w3.org/2000/svg">
<path d="M8.57307 0C3.83345 0 0 3.83345 0 8.57307C0 13.3127 3.83345 17.1461 8.57307 17.1461C10.2652 17.1461 11.8313 16.6497 13.159 15.8066L19.3524 22L21.4957 19.8567L15.3811 13.7579C16.4803 12.3159 17.1461 10.5292 17.1461 8.57307C17.1461 3.83345 13.3127 0 8.57307 0ZM8.57307 2.01719C12.2036 2.01719 15.1289 4.94251 15.1289 8.57307C15.1289 12.2036 12.2036 15.1289 8.57307 15.1289C4.94251 15.1289 2.01719 12.2036 2.01719 8.57307C2.01719 4.94251 4.94251 2.01719 8.57307 2.01719Z" fill="#222222"/>
</svg> -->
<svg width="2.1rem" height="2rem" viewBox="0 0 21 20" fill="none" xmlns="http://www.w3.org/2000/svg">
<path d="M2 18L6.09091 13.9091" stroke="#6448B5" stroke-width="3" stroke-linecap="round"/>
<circle cx="12.0998" cy="8.18182" r="6.68182" stroke="#6448B5" stroke-width="3"/>
</svg>