<svg width="23" height="21" viewBox="0 0 23 21" fill="none" xmlns="http://www.w3.org/2000/svg">
  <path d="M21.1663 13.4501H7.33126C7.27122 13.3289 7.21005 13.0876 7.33126 12.8463C7.51251 12.3026 8.11629 11.8801 9.14376 11.6376L20.14 10.4289C20.7438 10.3689 21.1674 9.82512 21.1674 9.22018V3.78268C21.1674 3.11771 20.6237 2.57396 19.9587 2.57396L5.09623 2.57509L4.85381 1.12509C4.73373 0.581344 4.25003 0.158813 3.64622 0.158813H1.83372C1.16875 0.158813 0.625 0.702563 0.625 1.36753C0.625 2.0325 1.16875 2.57625 1.83372 2.57625H2.67994L4.91497 13.7537V13.8138C5.15626 15.0225 6.0625 15.8075 7.08997 15.8075L21.1663 15.8064C21.8312 15.8064 22.375 15.2626 22.375 14.5977C22.375 13.9338 21.8312 13.4501 21.1663 13.4501L21.1663 13.4501ZM9.08373 9.22134V4.99256H11.5V8.92003L9.08373 9.22134ZM12.7087 4.9914H15.125V8.55637L12.7087 8.79766V4.9914ZM18.75 8.13384L16.3337 8.37513V4.99141H18.75V8.13384ZM7.87501 4.9914V9.46262C7.39129 9.64387 6.96876 9.82512 6.60626 10.0664L5.63998 4.9914H7.87501Z" fill="white"/>
  <path d="M6.0625 18.8876C6.0625 19.889 5.2514 20.7001 4.25 20.7001C3.2486 20.7001 2.4375 19.889 2.4375 18.8876C2.4375 17.8862 3.2486 17.0751 4.25 17.0751C5.2514 17.0751 6.0625 17.8862 6.0625 18.8876Z" fill="white"/>
  <path d="M20.5625 18.8876C20.5625 19.889 19.7514 20.7001 18.75 20.7001C17.7486 20.7001 16.9375 19.889 16.9375 18.8876C16.9375 17.8862 17.7486 17.0751 18.75 17.0751C19.7514 17.0751 20.5625 17.8862 20.5625 18.8876Z" fill="white"/>
</svg>
